<?xml version="1.0" encoding="UTF-8" standalone="no"?>
<!DOCTYPE svg PUBLIC "-//W3C//DTD SVG 1.1//EN" "http://www.w3.org/Graphics/SVG/1.1/DTD/svg11.dtd">
<svg width="21.60" height="21.60" viewBox="0.00 0.00 180.00 180.00" xmlns="http://www.w3.org/2000/svg" xmlns:xlink="http://www.w3.org/1999/xlink">
<g stroke-linecap="round" transform="translate(-1507.00, -2391.00)" id="Layer_2">
<path d="M1551.85,2404.73 C1557.79,2401.20 1573.01,2395.45 1580.68,2393.83 C1587.41,2392.43 1603.79,2392.31 1611.47,2393.44 C1619.06,2394.61 1633.59,2399.83 1640.49,2403.59 C1643.72,2405.38 1650.28,2409.67 1653.21,2412.13 C1659.20,2417.20 1669.87,2429.48 1673.42,2435.40 C1676.95,2441.34 1682.70,2456.56 1684.32,2464.23 C1685.71,2470.96 1685.84,2487.34 1684.70,2495.01 C1683.54,2502.61 1678.32,2517.14 1674.56,2524.03 C1672.77,2527.27 1668.48,2533.83 1666.02,2536.76 C1660.95,2542.75 1648.67,2553.42 1642.75,2556.97 C1636.81,2560.49 1621.59,2566.25 1613.92,2567.87 C1607.19,2569.26 1590.81,2569.39 1583.13,2568.25 C1575.54,2567.09 1561.01,2561.87 1554.11,2558.11 C1550.88,2556.32 1544.32,2552.03 1541.39,2549.57 C1535.40,2544.50 1524.73,2532.22 1521.18,2526.30 C1517.65,2520.36 1511.90,2505.14 1510.28,2497.46 C1508.89,2490.74 1508.76,2474.36 1509.90,2466.68 C1511.06,2459.09 1516.28,2444.55 1520.04,2437.66 C1521.83,2434.43 1526.12,2427.87 1528.58,2424.94 C1533.65,2418.95 1545.93,2408.28 1551.85,2404.73 Z" fill="rgb(255, 255, 255)" stroke="rgb(255, 255, 255)" stroke-width="3.00" stroke-opacity="1.00" stroke-linejoin="round"/>
</g>
</svg>
