<?xml version="1.0" encoding="UTF-8" standalone="no"?>
<!DOCTYPE svg PUBLIC "-//W3C//DTD SVG 1.1//EN" "http://www.w3.org/Graphics/SVG/1.1/DTD/svg11.dtd">
<svg width="588.72" height="587.64" viewBox="0.00 0.00 4906.00 4897.00" xmlns="http://www.w3.org/2000/svg" xmlns:xlink="http://www.w3.org/1999/xlink">
<g stroke-linecap="round" transform="translate(-154.00, -154.00)" id="Layer_2">
<path d="M-1057.80,2605.70 L164.39,1383.51 L1386.58,2605.70 L164.39,3827.89 L-1057.80,2605.70 Z" fill="none" stroke="currentColor" stroke-width="200" stroke-opacity="1.00" stroke-linejoin="miter"/>
<path d="M165.10,1382.79 L1387.29,160.60 L2609.49,1382.79 L1387.29,2604.99 L165.10,1382.79 Z" fill="none" stroke="currentColor" stroke-width="200" stroke-opacity="1.00" stroke-linejoin="miter"/>
<path d="M1388.01,159.89 L2610.20,-1062.30 L3832.39,159.89 L2610.20,1382.08 L1388.01,159.89 Z" fill="none" stroke="currentColor" stroke-width="200" stroke-opacity="1.00" stroke-linejoin="miter"/>
<path d="M161.55,3825.05 L1383.74,2602.86 L2605.93,3825.05 L1383.74,5047.24 L161.55,3825.05 Z" fill="none" stroke="currentColor" stroke-width="200" stroke-opacity="1.00" stroke-linejoin="miter"/>
<path d="M1384.45,2602.14 L2606.64,1379.95 L3828.84,2602.14 L2606.64,3824.34 L1384.45,2602.14 Z" fill="none" stroke="currentColor" stroke-width="200" stroke-opacity="1.00" stroke-linejoin="miter"/>
<path d="M2607.36,1379.24 L3829.55,157.05 L5051.74,1379.24 L3829.55,2601.43 L2607.36,1379.24 Z" fill="none" stroke="currentColor" stroke-width="200" stroke-opacity="1.00" stroke-linejoin="miter"/>
<path d="M1381.61,5045.11 L2603.80,3822.92 L3825.99,5045.11 L2603.80,6267.30 L1381.61,5045.11 Z" fill="none" stroke="currentColor" stroke-width="200" stroke-opacity="1.00" stroke-linejoin="miter"/>
<path d="M2604.51,3822.21 L3826.71,2600.01 L5048.90,3822.21 L3826.71,5044.40 L2604.51,3822.21 Z" fill="none" stroke="currentColor" stroke-width="200" stroke-opacity="1.00" stroke-linejoin="miter"/>
<path d="M3827.42,2599.30 L5049.61,1377.11 L6271.80,2599.30 L5049.61,3821.49 L3827.42,2599.30 Z" fill="none" stroke="currentColor" stroke-width="200" stroke-opacity="1.00" stroke-linejoin="miter"/>
<path d="M-4715.80,-1052.30 L-3493.61,-2274.49 L-2271.42,-1052.30 L-3493.61,169.89 L-4715.80,-1052.30 Z" fill="none" stroke="currentColor" stroke-width="200" stroke-opacity="1.00" stroke-linejoin="miter"/>
<path d="M-3492.90,-2275.21 L-2270.71,-3497.40 L-1048.51,-2275.21 L-2270.71,-1053.01 L-3492.90,-2275.21 Z" fill="none" stroke="currentColor" stroke-width="200" stroke-opacity="1.00" stroke-linejoin="miter"/>
<path d="M-2269.99,-3498.11 L-1047.80,-4720.30 L174.39,-3498.11 L-1047.80,-2275.92 L-2269.99,-3498.11 Z" fill="none" stroke="currentColor" stroke-width="200" stroke-opacity="1.00" stroke-linejoin="miter"/>
<path d="M-3496.45,167.05 L-2274.26,-1055.14 L-1052.07,167.05 L-2274.26,1389.24 L-3496.45,167.05 Z" fill="none" stroke="currentColor" stroke-width="200" stroke-opacity="1.00" stroke-linejoin="miter"/>
<path d="M-2273.55,-1055.86 L-1051.36,-2278.05 L170.84,-1055.86 L-1051.36,166.34 L-2273.55,-1055.86 Z" fill="none" stroke="currentColor" stroke-width="200" stroke-opacity="1.00" stroke-linejoin="miter"/>
<path d="M-1050.64,-2278.76 L171.55,-3500.95 L1393.74,-2278.76 L171.55,-1056.57 L-1050.64,-2278.76 Z" fill="none" stroke="currentColor" stroke-width="200" stroke-opacity="1.00" stroke-linejoin="miter"/>
<path d="M-2276.39,1387.11 L-1054.20,164.92 L167.99,1387.11 L-1054.20,2609.30 L-2276.39,1387.11 Z" fill="none" stroke="currentColor" stroke-width="200" stroke-opacity="1.00" stroke-linejoin="miter"/>
<path d="M-1053.49,164.21 L168.71,-1057.99 L1390.90,164.21 L168.71,1386.40 L-1053.49,164.21 Z" fill="none" stroke="currentColor" stroke-width="200" stroke-opacity="1.00" stroke-linejoin="miter"/>
<path d="M169.42,-1058.70 L1391.61,-2280.89 L2613.80,-1058.70 L1391.61,163.49 L169.42,-1058.70 Z" fill="none" stroke="currentColor" stroke-width="200" stroke-opacity="1.00" stroke-linejoin="miter"/>
<path d="M2607.20,6270.70 L3829.39,5048.51 L5051.58,6270.70 L3829.39,7492.89 L2607.20,6270.70 Z" fill="none" stroke="currentColor" stroke-width="200" stroke-opacity="1.00" stroke-linejoin="miter"/>
<path d="M3830.10,5047.79 L5052.29,3825.60 L6274.49,5047.79 L5052.29,6269.99 L3830.10,5047.79 Z" fill="none" stroke="currentColor" stroke-width="200" stroke-opacity="1.00" stroke-linejoin="miter"/>
<path d="M5053.01,3824.89 L6275.20,2602.70 L7497.39,3824.89 L6275.20,5047.08 L5053.01,3824.89 Z" fill="none" stroke="currentColor" stroke-width="200" stroke-opacity="1.00" stroke-linejoin="miter"/>
<path d="M3826.55,7490.05 L5048.74,6267.86 L6270.93,7490.05 L5048.74,8712.24 L3826.55,7490.05 Z" fill="none" stroke="currentColor" stroke-width="200" stroke-opacity="1.00" stroke-linejoin="miter"/>
<path d="M5049.45,6267.14 L6271.64,5044.95 L7493.84,6267.14 L6271.64,7489.34 L5049.45,6267.14 Z" fill="none" stroke="currentColor" stroke-width="200" stroke-opacity="1.00" stroke-linejoin="miter"/>
<path d="M6272.36,5044.24 L7494.55,3822.05 L8716.74,5044.24 L7494.55,6266.43 L6272.36,5044.24 Z" fill="none" stroke="currentColor" stroke-width="200" stroke-opacity="1.00" stroke-linejoin="miter"/>
<path d="M5046.61,8710.11 L6268.80,7487.92 L7490.99,8710.11 L6268.80,9932.30 L5046.61,8710.11 Z" fill="none" stroke="currentColor" stroke-width="200" stroke-opacity="1.00" stroke-linejoin="miter"/>
<path d="M6269.51,7487.21 L7491.71,6265.01 L8713.90,7487.21 L7491.71,8709.40 L6269.51,7487.21 Z" fill="none" stroke="currentColor" stroke-width="200" stroke-opacity="1.00" stroke-linejoin="miter"/>
<path d="M7492.42,6264.30 L8714.61,5042.11 L9936.80,6264.30 L8714.61,7486.49 L7492.42,6264.30 Z" fill="none" stroke="currentColor" stroke-width="200" stroke-opacity="1.00" stroke-linejoin="miter"/>
<path d="M2614.20,-1066.30 L3836.39,-2288.49 L5058.58,-1066.30 L3836.39,155.89 L2614.20,-1066.30 Z" fill="none" stroke="currentColor" stroke-width="200" stroke-opacity="1.00" stroke-linejoin="miter"/>
<path d="M3837.10,-2289.21 L5059.29,-3511.40 L6281.49,-2289.21 L5059.29,-1067.01 L3837.10,-2289.21 Z" fill="none" stroke="currentColor" stroke-width="200" stroke-opacity="1.00" stroke-linejoin="miter"/>
<path d="M5060.01,-3512.11 L6282.20,-4734.30 L7504.39,-3512.11 L6282.20,-2289.92 L5060.01,-3512.11 Z" fill="none" stroke="currentColor" stroke-width="200" stroke-opacity="1.00" stroke-linejoin="miter"/>
<path d="M3833.55,153.05 L5055.74,-1069.14 L6277.93,153.05 L5055.74,1375.24 L3833.55,153.05 Z" fill="none" stroke="currentColor" stroke-width="200" stroke-opacity="1.00" stroke-linejoin="miter"/>
<path d="M5056.45,-1069.86 L6278.64,-2292.05 L7500.84,-1069.86 L6278.64,152.34 L5056.45,-1069.86 Z" fill="none" stroke="currentColor" stroke-width="200" stroke-opacity="1.00" stroke-linejoin="miter"/>
<path d="M6279.36,-2292.76 L7501.55,-3514.95 L8723.74,-2292.76 L7501.55,-1070.57 L6279.36,-2292.76 Z" fill="none" stroke="currentColor" stroke-width="200" stroke-opacity="1.00" stroke-linejoin="miter"/>
<path d="M5053.61,1373.11 L6275.80,150.92 L7497.99,1373.11 L6275.80,2595.30 L5053.61,1373.11 Z" fill="none" stroke="currentColor" stroke-width="200" stroke-opacity="1.00" stroke-linejoin="miter"/>
<path d="M6276.51,150.21 L7498.71,-1071.99 L8720.90,150.21 L7498.71,1372.40 L6276.51,150.21 Z" fill="none" stroke="currentColor" stroke-width="200" stroke-opacity="1.00" stroke-linejoin="miter"/>
<path d="M7499.42,-1072.70 L8721.61,-2294.89 L9943.80,-1072.70 L8721.61,149.49 L7499.42,-1072.70 Z" fill="none" stroke="currentColor" stroke-width="200" stroke-opacity="1.00" stroke-linejoin="miter"/>
<path d="M-4728.80,6276.70 L-3506.61,5054.51 L-2284.42,6276.70 L-3506.61,7498.89 L-4728.80,6276.70 Z" fill="none" stroke="currentColor" stroke-width="200" stroke-opacity="1.00" stroke-linejoin="miter"/>
<path d="M-3505.90,5053.79 L-2283.71,3831.60 L-1061.51,5053.79 L-2283.71,6275.99 L-3505.90,5053.79 Z" fill="none" stroke="currentColor" stroke-width="200" stroke-opacity="1.00" stroke-linejoin="miter"/>
<path d="M-2282.99,3830.89 L-1060.80,2608.70 L161.39,3830.89 L-1060.80,5053.08 L-2282.99,3830.89 Z" fill="none" stroke="currentColor" stroke-width="200" stroke-opacity="1.00" stroke-linejoin="miter"/>
<path d="M-3509.45,7496.05 L-2287.26,6273.86 L-1065.07,7496.05 L-2287.26,8718.24 L-3509.45,7496.05 Z" fill="none" stroke="currentColor" stroke-width="200" stroke-opacity="1.00" stroke-linejoin="miter"/>
<path d="M-2286.55,6273.14 L-1064.36,5050.95 L157.84,6273.14 L-1064.36,7495.34 L-2286.55,6273.14 Z" fill="none" stroke="currentColor" stroke-width="200" stroke-opacity="1.00" stroke-linejoin="miter"/>
<path d="M-1063.64,5050.24 L158.55,3828.05 L1380.74,5050.24 L158.55,6272.43 L-1063.64,5050.24 Z" fill="none" stroke="currentColor" stroke-width="200" stroke-opacity="1.00" stroke-linejoin="miter"/>
<path d="M-2289.39,8716.11 L-1067.20,7493.92 L154.99,8716.11 L-1067.20,9938.30 L-2289.39,8716.11 Z" fill="none" stroke="currentColor" stroke-width="200" stroke-opacity="1.00" stroke-linejoin="miter"/>
<path d="M-1066.49,7493.21 L155.71,6271.01 L1377.90,7493.21 L155.71,8715.40 L-1066.49,7493.21 Z" fill="none" stroke="currentColor" stroke-width="200" stroke-opacity="1.00" stroke-linejoin="miter"/>
<path d="M156.42,6270.30 L1378.61,5048.11 L2600.80,6270.30 L1378.61,7492.49 L156.42,6270.30 Z" fill="none" stroke="currentColor" stroke-width="200" stroke-opacity="1.00" stroke-linejoin="miter"/>
</g>
</svg>
